<svg xmlns="http://www.w3.org/2000/svg" viewBox="0 0 32 32" fill="none">
  <!-- Cloud background -->
  <path d="M8 16C8 12.6863 10.6863 10 14 10H18C21.3137 10 24 12.6863 24 16C24 19.3137 21.3137 22 18 22H14C10.6863 22 8 19.3137 8 16Z" fill="#3B82F6"/>
  
  <!-- Cloud details -->
  <path d="M12 14C12 13.4477 12.4477 13 13 13H19C19.5523 13 20 13.4477 20 14C20 14.5523 19.5523 15 19 15H13C12.4477 15 12 14.5523 12 14Z" fill="#1E40AF"/>
  <path d="M10 18C10 17.4477 10.4477 17 11 17H21C21.5523 17 22 17.4477 22 18C22 18.5523 21.5523 19 21 19H11C10.4477 19 10 18.5523 10 18Z" fill="#1E40AF"/>
  
  <!-- Dollar sign -->
  <path d="M16 6C16.5523 6 17 6.44772 17 7V8.5C17 9.05228 16.5523 9.5 16 9.5C15.4477 9.5 15 9.05228 15 8.5V7C15 6.44772 15.4477 6 16 6Z" fill="#10B981"/>
  <path d="M16 22.5C16.5523 22.5 17 22.9477 17 23.5V25C17 25.5523 16.5523 26 16 26C15.4477 26 15 25.5523 15 25V23.5C15 22.9477 15.4477 22.5 16 22.5Z" fill="#10B981"/>
  <path d="M18.5 12C18.5 11.4477 18.0523 11 17.5 11H14.5C13.9477 11 13.5 11.4477 13.5 12C13.5 12.5523 13.9477 13 14.5 13H17.5C18.0523 13 18.5 12.5523 18.5 12Z" fill="#10B981"/>
  <path d="M18.5 20C18.5 19.4477 18.0523 19 17.5 19H14.5C13.9477 19 13.5 19.4477 13.5 20C13.5 20.5523 13.9477 21 14.5 21H17.5C18.0523 21 18.5 20.5523 18.5 20Z" fill="#10B981"/>
  
  <!-- Cost indicator dots -->
  <circle cx="12" cy="12" r="1" fill="#F59E0B"/>
  <circle cx="20" cy="12" r="1" fill="#F59E0B"/>
  <circle cx="12" cy="20" r="1" fill="#F59E0B"/>
  <circle cx="20" cy="20" r="1" fill="#F59E0B"/>
</svg>
